<svg width="12" height="12" viewBox="0 0 12 12" fill="none" xmlns="http://www.w3.org/2000/svg">
<path d="M3.69654 10.9434C3.75586 10.9854 3.82245 11.0047 3.88919 10.999C3.95592 10.9934 4.02026 10.9631 4.07532 10.9114L8.84214 6.41112C8.89085 6.3651 8.93065 6.30367 8.95815 6.23208C8.98564 6.1605 9 6.0809 9 6.00009C9 5.91929 8.98564 5.83969 8.95815 5.7681C8.93065 5.69652 8.89085 5.63509 8.84214 5.58907L4.07532 1.08884C4.02031 1.03693 3.95593 1.00653 3.88916 1.00094C3.82239 0.995348 3.75577 1.01477 3.69651 1.0571C3.63726 1.09944 3.58762 1.16307 3.55298 1.24111C3.51835 1.31916 3.50002 1.40863 3.5 1.49986V10.5003C3.49999 10.5916 3.5183 10.6811 3.55294 10.7592C3.58759 10.8373 3.63725 10.901 3.69654 10.9434Z" fill="#777777"/>
</svg>
